<svg xmlns="http://www.w3.org/2000/svg" width="41.089" height="67.329" viewBox="0 0 41.089 67.329">
  <g>
    <g>
      <path fill="none" stroke="rgb(0,0,0)" stroke-linecap="round" stroke-linejoin="miter" stroke-width="2" d="M33.0901661 10.8793501c2.064 2.67456 3.29408 6.0256 3.29408 9.66528v26.24c0 8.74816-7.09184 15.84-15.84 15.84-1.30176 0-2.56512-.16-3.776-.45632"/>
      <path fill="none" stroke="rgb(0,0,0)" stroke-linecap="round" stroke-linejoin="miter" stroke-width="2" d="M30.5683101 8.2809501c-2.73088-2.23424-6.22016-3.57632-10.02368-3.57632-8.74816 0-15.84 7.09184-15.84 15.84v26.24c0 4.48 1.8624 8.52224 4.85184 11.40288"/>
      <path fill="rgb(0,0,0)" fill-rule="evenodd" d="M13.6645661 60.7046941c0 .53056-.43008.96-.96.96s-.96-.42944-.96-.96c0-.53056.43008-.96.96-.96s.96.42944.96.96"/>
    </g>
    <path fill="rgb(0,0,0)" fill-rule="evenodd" d="M20.7045661 13.7046941c1.65574508 0 3 1.34425494 3 3v7c0 1.65574508-1.34425492 3-3 3-1.65574506 0-3-1.34425492-3-3v-7c0-1.65574506 1.34425494-3 3-3z"/>
  </g>
</svg>
